<svg width="22" height="17" viewBox="0 0 22 17" fill="none" xmlns="http://www.w3.org/2000/svg">
<g clip-path="url(#clip0_416_123)">
<path d="M18.6361 1.42372C17.1907 0.74903 15.6648 0.27038 14.0974 0C13.8829 0.39093 13.6888 0.793144 13.516 1.20496C11.8463 0.948447 10.1484 0.948447 8.47883 1.20496C8.30589 0.793187 8.11182 0.390977 7.89742 0C6.32898 0.272663 4.80206 0.75245 3.35518 1.42725C0.482758 5.76017 -0.295911 9.98547 0.0934237 14.1508C1.77559 15.418 3.65841 16.3817 5.66004 17C6.11075 16.382 6.50957 15.7263 6.85227 15.04C6.20136 14.7921 5.57312 14.4863 4.97481 14.1261C5.13228 14.0097 5.28628 13.8897 5.43509 13.7732C7.17602 14.608 9.07615 15.0408 11 15.0408C12.9238 15.0408 14.8239 14.608 16.5649 13.7732C16.7154 13.8985 16.8694 14.0185 17.0252 14.1261C16.4257 14.4869 15.7963 14.7933 15.1442 15.0417C15.4865 15.7277 15.8854 16.3829 16.3365 17C18.3398 16.3841 20.2241 15.4209 21.9065 14.1526C22.3634 9.32213 21.1261 5.13564 18.6361 1.42372ZM7.34543 11.5891C6.26048 11.5891 5.36415 10.5853 5.36415 9.35035C5.36415 8.1154 6.22934 7.10274 7.34197 7.10274C8.4546 7.10274 9.34401 8.1154 9.32498 9.35035C9.30595 10.5853 8.45114 11.5891 7.34543 11.5891ZM14.6545 11.5891C13.5679 11.5891 12.675 10.5853 12.675 9.35035C12.675 8.1154 13.5402 7.10274 14.6545 7.10274C15.7689 7.10274 16.6514 8.1154 16.6324 9.35035C16.6133 10.5853 15.7602 11.5891 14.6545 11.5891Z" fill="#F3ABFF"/>
</g>
<defs>
<clipPath id="clip0_416_123">
<rect width="22" height="17" fill="white"/>
</clipPath>
</defs>
</svg>
