<svg width="20" height="18" viewBox="0 0 20 18" fill="none" xmlns="http://www.w3.org/2000/svg">
<path d="M10 5H10.5C10.5 3.74429 11.0137 2.64461 11.8261 1.83097C12.6689 1.01207 13.7715 0.5 15 0.5C16.2557 0.5 17.3554 1.01367 18.1691 1.82617C18.9879 2.66894 19.5 3.77156 19.5 5C19.5 6.25695 18.9853 7.35756 18.1714 8.17145L10 16.3429L1.83102 8.17392C1.01209 7.33114 0.5 6.22848 0.5 5C0.5 3.74429 1.01365 2.64461 1.82614 1.83097C2.66891 1.01207 3.77155 0.5 5 0.5C6.2557 0.5 7.35537 1.01365 8.16901 1.82612C8.98792 2.66889 9.5 3.77154 9.5 5H10Z" stroke="url(#paint0_linear_162_178)"/>
<defs>
<linearGradient id="paint0_linear_162_178" x1="0.764331" y1="2.87857" x2="16.5664" y2="4.1325" gradientUnits="userSpaceOnUse">
<stop stop-color="#A8E0FF"/>
<stop offset="0.563857" stop-color="#A8B6FF"/>
<stop offset="1" stop-color="#ECB7FF"/>
</linearGradient>
</defs>
</svg>
