<svg width="30" height="26" viewBox="0 0 30 26" fill="none" xmlns="http://www.w3.org/2000/svg">
<path d="M7.5 0C5.4375 0 3.6 0.8625 2.2125 2.2125C0.8625 3.5625 0 5.4 0 7.5C0 9.5625 0.8625 11.4 2.2125 12.7875L15 25.575L27.7875 12.7875C29.1375 11.4375 30 9.6 30 7.5C30 5.4375 29.1375 3.6 27.7875 2.2125C26.4375 0.8625 24.6 0 22.5 0C20.4375 0 18.6 0.8625 17.2125 2.2125C15.8625 3.5625 15 5.4 15 7.5C15 5.4375 14.1375 3.6 12.7875 2.2125C11.4375 0.8625 9.6 0 7.5 0Z" fill="url(#paint0_linear_162_285)"/>
<defs>
<linearGradient id="paint0_linear_162_285" x1="1.1465" y1="4.31786" x2="24.8496" y2="6.19876" gradientUnits="userSpaceOnUse">
<stop stop-color="#A8E0FF"/>
<stop offset="0.563857" stop-color="#A8B6FF"/>
<stop offset="1" stop-color="#ECB7FF"/>
</linearGradient>
</defs>
</svg>
